<svg width="824" height="824" viewBox="0 0 824 824" fill="none" xmlns="http://www.w3.org/2000/svg">
<rect width="824" height="824" rx="184" fill="url(#paint0_linear_801_11)"/>
<path d="M578.915 490.281H610.271V368.137C612.593 365.611 617.238 362.89 624.206 359.975C631.174 357.06 638.53 355.602 646.272 355.602C666.595 355.602 676.757 368.429 676.757 394.082V490.281H708.113V388.251C708.113 350.161 690.499 331.115 655.272 331.115C640.562 331.115 625.561 335.682 610.271 344.816V266.399L578.915 270.481V490.281Z" fill="white"/>
<path d="M127.889 471.041C139.89 486.199 156.923 493.779 178.988 493.779C201.247 493.779 219.828 489.115 234.732 479.786L224.57 459.38C212.183 465.988 200.279 469.292 188.859 469.292C158.277 469.292 142.987 449.469 142.987 409.823C142.987 394.276 146.664 381.352 154.019 371.052C161.568 360.752 173.084 355.602 188.569 355.602C200.182 355.602 212.57 358.614 225.731 364.639L234.441 343.359C218.57 335.196 201.15 331.115 182.182 331.115C159.536 331.115 141.825 338.889 129.051 354.436C116.276 369.789 109.889 389.32 109.889 413.03C109.889 436.545 115.889 455.882 127.889 471.041Z" fill="white"/>
<path fill-rule="evenodd" clip-rule="evenodd" d="M388.297 453.259V344.233C382.491 341.124 373.49 338.209 361.297 335.488C349.296 332.573 338.747 331.115 329.65 331.115C307.198 331.115 289.294 338.986 275.939 354.728C262.583 370.275 255.906 389.903 255.906 413.613C255.906 437.128 260.745 456.368 270.422 471.332C280.294 486.297 295.197 493.779 315.134 493.779C335.263 493.779 350.457 486.005 360.716 470.458C363.619 484.256 372.62 491.155 387.717 491.155C393.136 491.155 398.266 490.281 403.104 488.532L401.943 470.166C395.943 470.166 392.169 469.097 390.62 466.96C389.072 464.628 388.297 460.061 388.297 453.259ZM297.423 456.757C291.81 448.4 289.004 434.796 289.004 415.945C289.004 397.094 292.294 382.324 298.875 371.635C305.649 360.946 316.392 355.602 331.102 355.602C340.78 355.602 349.393 356.865 356.942 359.392V429.355C356.942 440.626 353.845 450.149 347.651 457.923C341.651 465.502 333.231 469.292 322.392 469.292C311.553 469.292 303.23 465.113 297.423 456.757Z" fill="white"/>
<path d="M428.763 482.41L435.44 458.797C451.312 465.794 464.957 469.292 476.377 469.292C496.12 469.292 505.991 462.587 505.991 449.177C505.991 438.683 496.507 429.938 477.539 422.941C470.183 420.221 464.667 418.083 460.99 416.528C457.312 414.779 452.763 412.155 447.344 408.657C436.698 401.661 431.376 391.167 431.376 377.174C431.376 362.987 436.311 351.91 446.183 343.942C456.247 335.779 469.796 331.698 486.829 331.698C488.193 331.698 489.541 331.716 490.874 331.753L494.959 311.211L514.97 312.675L510.755 333.865C518.197 335.323 525.029 337.515 531.25 340.443C533.573 341.415 534.831 341.901 535.024 341.901L528.927 365.513C514.798 359.295 502.217 356.185 491.184 356.185C471.829 356.185 462.151 362.793 462.151 376.008C462.151 379.895 463.119 382.907 465.054 385.045C467.183 386.988 468.829 388.446 469.99 389.417C471.151 390.195 473.087 391.264 475.797 392.624C478.506 393.79 480.442 394.665 481.603 395.248C482.958 395.636 485.378 396.511 488.862 397.871L499.313 401.952C502.991 403.119 506.765 404.77 510.636 406.908C514.701 409.046 518.959 411.961 523.411 415.654C532.315 423.039 536.766 434.31 536.766 449.469C536.766 459.769 533.766 468.32 527.766 475.122C517.789 486.779 501.522 492.973 478.965 493.705L475.008 513.599L454.997 512.135L458.878 492.625C448.165 490.979 438.127 487.574 428.763 482.41Z" fill="white"/>
<defs>
<linearGradient id="paint0_linear_801_11" x1="412" y1="0" x2="412" y2="824" gradientUnits="userSpaceOnUse">
<stop stop-color="#373737"/>
<stop offset="1"/>
</linearGradient>
</defs>
</svg>
