<svg width="1000" height="1000" viewBox="0 0 1000 1000" fill="none" xmlns="http://www.w3.org/2000/svg">
<rect width="1000" height="1000" fill="url(#paint0_linear_703_15)"/>
<path d="M706.206 621.7H744.26V473.468C747.078 470.402 752.716 467.1 761.172 463.562C769.628 460.025 778.555 458.256 787.95 458.256C812.615 458.256 824.947 473.822 824.947 504.954V621.7H863V497.879C863 451.652 841.624 428.538 798.873 428.538C781.021 428.538 762.816 434.081 744.26 445.166V350L706.206 354.953V621.7Z" fill="white"/>
<path d="M158.845 598.351C173.409 616.748 194.08 625.946 220.858 625.946C247.871 625.946 270.422 620.285 288.509 608.965L276.177 584.2C261.143 592.219 246.697 596.229 232.838 596.229C195.724 596.229 177.167 572.172 177.167 524.058C177.167 505.19 181.63 489.506 190.557 477.006C199.718 464.506 213.694 458.256 232.486 458.256C246.58 458.256 261.613 461.911 277.586 469.223L288.156 443.397C268.895 433.491 247.754 428.538 224.734 428.538C197.251 428.538 175.758 437.972 160.255 456.841C144.752 475.473 137 499.176 137 527.95C137 556.488 144.282 579.955 158.845 598.351Z" fill="white"/>
<path fill-rule="evenodd" clip-rule="evenodd" d="M474.875 576.771V444.458C467.828 440.685 456.905 437.147 442.107 433.845C427.543 430.307 414.741 428.538 403.701 428.538C376.453 428.538 354.725 438.09 338.517 457.194C322.309 476.062 314.205 499.883 314.205 528.657C314.205 557.195 320.078 580.544 331.822 598.705C343.802 616.866 361.889 625.946 386.084 625.946C410.513 625.946 428.952 616.512 441.402 597.644C444.925 614.389 455.848 622.762 474.17 622.762C480.747 622.762 486.972 621.7 492.844 619.578L491.435 597.29C484.153 597.29 479.573 595.993 477.694 593.398C475.814 590.568 474.875 585.026 474.875 576.771ZM364.591 581.016C357.779 570.875 354.372 554.365 354.372 531.487C354.372 508.61 358.366 490.685 366.352 477.713C374.574 464.742 387.61 458.256 405.463 458.256C417.208 458.256 427.66 459.789 436.821 462.855V547.761C436.821 561.441 433.063 572.997 425.546 582.431C418.265 591.629 408.047 596.229 394.892 596.229C381.738 596.229 371.637 591.158 364.591 581.016Z" fill="white"/>
<path d="M523.983 612.148L532.087 583.493C551.348 591.983 567.909 596.229 581.768 596.229C605.727 596.229 617.707 588.092 617.707 571.818C617.707 559.082 606.197 548.469 583.177 539.978C574.251 536.676 567.556 534.082 563.093 532.195C558.63 530.072 553.11 526.888 546.533 522.643C533.614 514.152 527.154 501.416 527.154 484.435C527.154 467.218 533.144 453.774 545.124 444.105C557.338 434.199 573.781 429.246 594.452 429.246C596.107 429.246 597.743 429.268 599.361 429.312L604.319 404.383L628.603 406.16L623.489 431.876C632.52 433.645 640.811 436.306 648.361 439.859C651.18 441.039 652.707 441.628 652.941 441.628L645.542 470.284C628.395 462.737 613.126 458.963 599.737 458.963C576.248 458.963 564.503 466.982 564.503 483.02C564.503 487.737 565.677 491.393 568.026 493.987C570.61 496.346 572.607 498.114 574.016 499.294C575.425 500.237 577.774 501.534 581.063 503.185C584.351 504.6 586.7 505.662 588.11 506.369C589.754 506.841 592.69 507.902 596.918 509.553L609.603 514.506C614.066 515.921 618.646 517.926 623.344 520.52C628.277 523.115 633.445 526.652 638.848 531.134C649.653 540.096 655.056 553.775 655.056 572.172C655.056 584.672 651.415 595.049 644.133 603.304C632.025 617.451 612.283 624.968 584.908 625.857L580.106 650L555.821 648.223L560.531 624.545C547.53 622.549 535.347 618.416 523.983 612.148Z" fill="white"/>
<defs>
<linearGradient id="paint0_linear_703_15" x1="500" y1="0" x2="500" y2="1000" gradientUnits="userSpaceOnUse">
<stop stop-color="#373737"/>
<stop offset="1"/>
</linearGradient>
</defs>
</svg>
