<svg width="16" height="16" viewBox="0 0 16 16" fill="none" xmlns="http://www.w3.org/2000/svg">
<rect width="16" height="16" rx="3" fill="#1F1F1F"/>
<path d="M5.21875 11.4901L5.56267 10.3129C6.3801 10.6617 7.08288 10.8361 7.67103 10.8361C8.68783 10.8361 9.19623 10.5019 9.19623 9.83334C9.19623 9.31015 8.70777 8.87415 7.73084 8.52535C7.35204 8.38971 7.06793 8.28313 6.87853 8.20562C6.68912 8.11842 6.45486 7.98762 6.17574 7.81322C5.62746 7.46443 5.35333 6.94123 5.35333 6.24363C5.35333 5.53635 5.60753 4.98409 6.11593 4.58685C6.63429 4.17992 7.3321 3.97645 8.20934 3.97645C8.27955 3.97645 8.349 3.97736 8.41765 3.97918L8.62807 2.95508L9.65866 3.02808L9.44161 4.08448C9.82488 4.15715 10.1767 4.26647 10.4971 4.41245C10.6168 4.46089 10.6816 4.48511 10.6915 4.48511L10.3775 5.6623C9.6498 5.35226 9.00184 5.19724 8.43363 5.19724C7.43677 5.19724 6.93834 5.52666 6.93834 6.1855C6.93834 6.37928 6.98818 6.52945 7.08787 6.63603C7.19752 6.73292 7.28226 6.80559 7.34207 6.85403C7.40188 6.89279 7.50157 6.94607 7.64113 7.0139C7.78069 7.07203 7.88037 7.11563 7.94019 7.14469C8.00997 7.16407 8.13457 7.20767 8.31401 7.27549L8.85231 7.47896C9.04172 7.53709 9.2361 7.61945 9.43548 7.72602C9.64482 7.8326 9.86413 7.97793 10.0934 8.16202C10.552 8.5302 10.7812 9.09215 10.7812 9.84788C10.7812 10.3614 10.6267 10.7877 10.3177 11.1268C9.80386 11.7079 8.96606 12.0168 7.80429 12.0533L7.6005 13.0451L6.56992 12.9721L6.76977 11.9994C6.21805 11.9174 5.70104 11.7476 5.21875 11.4901Z" fill="white"/>
</svg>
