{"asset":{"version":"2.0","generator":"VECTARY"},"nodes":[{"translation":[-0.08846897103031404,-2.842170943040401e-17,0.1561533054572086],"scale":[0.001,0.001,0.001],"rotation":[0.026057001342776775,-0.27407702345890617,0.007428932078428152,0.9613259742985741],"name":"Directional Light","extensions":{"KHR_lights_punctual":{"light":0}}},{"translation":[0.000038201814763056064,0.19306841930842542,0.2643784421312761],"scale":[0.001,0.001,0.001],"rotation":[-0.38268343236508967,0,0,0.9238795325112867],"name":"Spot Light","extensions":{"KHR_lights_punctual":{"light":1}}},{"translation":[0.11167160582070625,0.1413084377243937,0.27824923102585114],"scale":[0.001,0.001,0.001],"rotation":[-0.7071067811865475,0,0,0.7071067811865476],"name":"Point Light","extensions":{"KHR_lights_punctual":{"light":2}}},{"translation":[-0.0033234545525916205,-8.881784197001253e-19,0.004169073206680235],"scale":[0.001,0.001,0.001],"rotation":[-0.7071067811865475,0,0,0.7071067811865476],"name":"Group","children":[4,5,6,7,8]},{"translation":[0,0,0],"scale":[1,1.075268817204301,1.075268817204301],"rotation":[0,0,0,1],"name":"Box","mesh":0},{"translation":[49,9.769962616701378e-15,36.855237288310846],"scale":[0.7187415466664739,0.7187415466664739,0.7187415466664739],"rotation":[0,0,0.7071067811865477,0.7071067811865474],"name":"Merged Objects 1","mesh":1},{"translation":[-49,-1.0658141036401503e-14,36.855237288310846],"scale":[0.7187415466664739,0.7187415466664739,0.7187415466664739],"rotation":[0,0,-0.7071067811865475,0.7071067811865476],"name":"Merged Objects","mesh":2},{"translation":[0,49,36.855237288310846],"scale":[0.7187415466664739,0.7187415466664739,0.7187415466664739],"rotation":[0,0,1,6.123233995736766e-17],"name":"Merged Objects 1","mesh":3},{"translation":[0,-49,36.855237288310846],"scale":[0.7187415466664739,0.7187415466664739,0.7187415466664739],"rotation":[0,0,0,1],"name":"Merged Objects","mesh":4}],"extensions":{"KHR_lights_punctual":{"lights":[{"name":"Directional Light","type":"directional","intensity":0.88,"color":[1,1,1]},{"name":"Spot Light","type":"spot","intensity":0.92,"range":10000,"color":[1,1,1],"spot":{"innerConeAngle":0.47123889803846897,"outerConeAngle":0.7853981633974483}},{"name":"Point Light","type":"point","intensity":0.84,"range":10000,"color":[1,1,1]}]}},"materials":[{"pbrMetallicRoughness":{"baseColorFactor":[0,0,0,1],"metallicRoughnessTexture":{"index":1,"extensions":{"KHR_texture_transform":{"offset":[0,0],"scale":[1,1],"rotation":0}},"texCoord":0},"metallicFactor":0,"roughnessFactor":0.1},"name":"Plastic Textured","normalTexture":{"index":0,"scale":0,"extensions":{"KHR_texture_transform":{"offset":[0,0],"scale":[1,1],"rotation":0}},"texCoord":0},"emissiveFactor":[0,0,0],"extensions":{},"alphaMode":"OPAQUE","doubleSided":false},{"pbrMetallicRoughness":{"baseColorFactor":[1,1,1,1],"metallicRoughnessTexture":{"index":3,"extensions":{"KHR_texture_transform":{"offset":[0,0],"scale":[1,1],"rotation":0}},"texCoord":0},"metallicFactor":0,"roughnessFactor":1},"name":"Subsurface Textured 2","normalTexture":{"index":2,"scale":1,"extensions":{"KHR_texture_transform":{"offset":[0,0],"scale":[1,1],"rotation":0}},"texCoord":0},"emissiveFactor":[0,0,0],"extensions":{},"alphaMode":"OPAQUE","doubleSided":false},{"pbrMetallicRoughness":{"baseColorFactor":[1,1,1,1],"metallicRoughnessTexture":{"index":3,"extensions":{"KHR_texture_transform":{"offset":[0,0],"scale":[1,1],"rotation":0}},"texCoord":0},"metallicFactor":0,"roughnessFactor":1},"name":"Subsurface Textured 3","normalTexture":{"index":2,"scale":1,"extensions":{"KHR_texture_transform":{"offset":[0,0],"scale":[1,1],"rotation":0}},"texCoord":0},"emissiveFactor":[0,0,0],"extensions":{},"alphaMode":"OPAQUE","doubleSided":false},{"pbrMetallicRoughness":{"baseColorFactor":[1,1,1,1],"metallicRoughnessTexture":{"index":3,"extensions":{"KHR_texture_transform":{"offset":[0,0],"scale":[1,1],"rotation":0}},"texCoord":0},"metallicFactor":0,"roughnessFactor":1},"name":"Subsurface Textured 1","normalTexture":{"index":2,"scale":1,"extensions":{"KHR_texture_transform":{"offset":[0,0],"scale":[1,1],"rotation":0}},"texCoord":0},"emissiveFactor":[0,0,0],"extensions":{},"alphaMode":"OPAQUE","doubleSided":false},{"pbrMetallicRoughness":{"baseColorFactor":[1,1,1,1],"metallicRoughnessTexture":{"index":3,"extensions":{"KHR_texture_transform":{"offset":[0,0],"scale":[1,1],"rotation":0}},"texCoord":0},"metallicFactor":0,"roughnessFactor":1},"name":"Subsurface Textured","normalTexture":{"index":2,"scale":1,"extensions":{"KHR_texture_transform":{"offset":[0,0],"scale":[1,1],"rotation":0}},"texCoord":0},"emissiveFactor":[0,0,0],"extensions":{},"alphaMode":"OPAQUE","doubleSided":false}],"textures":[{"sampler":0,"source":0},{"sampler":0,"source":1},{"sampler":0,"source":2},{"sampler":0,"source":3}],"images":[{"uri":"Plastic_001_Normal.jpg","mimeType":"image/jpeg"},{"uri":"metallicTexture&Plastic_001_Rough.jpg","mimeType":"image/jpeg"},{"uri":"Plastic_007_NormalMap.jpg","mimeType":"image/jpeg"},{"uri":"metallicTexture&Plastic_007_Roughness.jpg","mimeType":"image/jpeg"}],"samplers":[{"wrapS":10497,"wrapT":10497}],"meshes":[{"primitives":[{"mode":4,"attributes":{"POSITION":1,"NORMAL":2,"TEXCOORD_0":3},"material":0,"indices":0}]},{"primitives":[{"mode":4,"attributes":{"POSITION":5,"NORMAL":6,"TEXCOORD_0":7},"material":1,"indices":4}]},{"primitives":[{"mode":4,"attributes":{"POSITION":9,"NORMAL":10,"TEXCOORD_0":11},"material":2,"indices":8}]},{"primitives":[{"mode":4,"attributes":{"POSITION":13,"NORMAL":14,"TEXCOORD_0":15},"material":3,"indices":12}]},{"primitives":[{"mode":4,"attributes":{"POSITION":17,"NORMAL":18,"TEXCOORD_0":19},"material":4,"indices":16}]}],"accessors":[{"bufferView":0,"byteOffset":0,"componentType":5125,"count":39204,"type":"SCALAR"},{"bufferView":1,"byteOffset":0,"componentType":5126,"count":6536,"max":[50,46.5,93],"min":[-50,-46.5,0],"type":"VEC3"},{"bufferView":2,"byteOffset":0,"componentType":5126,"count":6536,"type":"VEC3"},{"bufferView":3,"byteOffset":0,"componentType":5126,"count":6536,"type":"VEC2"},{"bufferView":4,"byteOffset":0,"componentType":5125,"count":20679,"type":"SCALAR"},{"bufferView":5,"byteOffset":0,"componentType":5126,"count":10440,"max":[47.90464401245117,4.658700942993164,39.42735290527344],"min":[-47.90464401245117,-4.658700942993164,0],"type":"VEC3"},{"bufferView":6,"byteOffset":0,"componentType":5126,"count":10440,"type":"VEC3"},{"bufferView":7,"byteOffset":0,"componentType":5126,"count":10440,"type":"VEC2"},{"bufferView":8,"byteOffset":0,"componentType":5125,"count":20679,"type":"SCALAR"},{"bufferView":9,"byteOffset":0,"componentType":5126,"count":10440,"max":[47.90464401245117,4.658700942993164,39.42735290527344],"min":[-47.90464401245117,-4.658700942993164,0],"type":"VEC3"},{"bufferView":10,"byteOffset":0,"componentType":5126,"count":10440,"type":"VEC3"},{"bufferView":11,"byteOffset":0,"componentType":5126,"count":10440,"type":"VEC2"},{"bufferView":12,"byteOffset":0,"componentType":5125,"count":20679,"type":"SCALAR"},{"bufferView":13,"byteOffset":0,"componentType":5126,"count":10440,"max":[47.90464401245117,4.658700942993164,39.42735290527344],"min":[-47.90464401245117,-4.658700942993164,0],"type":"VEC3"},{"bufferView":14,"byteOffset":0,"componentType":5126,"count":10440,"type":"VEC3"},{"bufferView":15,"byteOffset":0,"componentType":5126,"count":10440,"type":"VEC2"},{"bufferView":16,"byteOffset":0,"componentType":5125,"count":20679,"type":"SCALAR"},{"bufferView":17,"byteOffset":0,"componentType":5126,"count":10440,"max":[47.90464401245117,4.658700942993164,39.42735290527344],"min":[-47.90464401245117,-4.658700942993164,0],"type":"VEC3"},{"bufferView":18,"byteOffset":0,"componentType":5126,"count":10440,"type":"VEC3"},{"bufferView":19,"byteOffset":0,"componentType":5126,"count":10440,"type":"VEC2"}],"bufferViews":[{"buffer":0,"byteOffset":0,"byteLength":156816,"target":34963},{"buffer":0,"byteOffset":156816,"byteLength":78432,"target":34962},{"buffer":0,"byteOffset":235248,"byteLength":78432,"target":34962},{"buffer":0,"byteOffset":313680,"byteLength":52288,"target":34962},{"buffer":0,"byteOffset":365968,"byteLength":82716,"target":34963},{"buffer":0,"byteOffset":448684,"byteLength":125280,"target":34962},{"buffer":0,"byteOffset":573964,"byteLength":125280,"target":34962},{"buffer":0,"byteOffset":699244,"byteLength":83520,"target":34962},{"buffer":0,"byteOffset":782764,"byteLength":82716,"target":34963},{"buffer":0,"byteOffset":865480,"byteLength":125280,"target":34962},{"buffer":0,"byteOffset":990760,"byteLength":125280,"target":34962},{"buffer":0,"byteOffset":1116040,"byteLength":83520,"target":34962},{"buffer":0,"byteOffset":1199560,"byteLength":82716,"target":34963},{"buffer":0,"byteOffset":1282276,"byteLength":125280,"target":34962},{"buffer":0,"byteOffset":1407556,"byteLength":125280,"target":34962},{"buffer":0,"byteOffset":1532836,"byteLength":83520,"target":34962},{"buffer":0,"byteOffset":1616356,"byteLength":82716,"target":34963},{"buffer":0,"byteOffset":1699072,"byteLength":125280,"target":34962},{"buffer":0,"byteOffset":1824352,"byteLength":125280,"target":34962},{"buffer":0,"byteOffset":1949632,"byteLength":83520,"target":34962}],"scene":0,"scenes":[{"nodes":[0,1,2,3],"name":"Project Name"}],"extensionsUsed":["KHR_texture_transform","KHR_lights_punctual"],"extensionsRequired":["KHR_lights_punctual"],"buffers":[{"byteLength":2033152,"uri":"ProjectName.bin"}]}